<svg width="402" height="874" viewBox="0 0 402 874" fill="none" xmlns="http://www.w3.org/2000/svg">
<g clip-path="url(#clip0_112_14)">
<rect width="402" height="874" fill="white"/>
<rect width="402" height="734" fill="#E5E5E5"/>
<path d="M61.2666 26.4731C61.9085 26.4731 62.5173 26.5921 63.0928 26.8301C63.6683 27.0625 64.1774 27.4277 64.6201 27.9258C65.0684 28.4183 65.4198 29.0519 65.6743 29.8267C65.9289 30.5959 66.0562 31.5228 66.0562 32.6074V32.624C66.0562 33.9688 65.8625 35.1198 65.4751 36.0771C65.0877 37.0345 64.5316 37.7705 63.8066 38.2852C63.0872 38.7943 62.2267 39.0488 61.2251 39.0488C60.4891 39.0488 59.825 38.916 59.2329 38.6504C58.6463 38.3792 58.1593 38.0085 57.772 37.5381C57.3901 37.0622 57.1328 36.5199 57 35.9111L56.9834 35.8198H59.0835L59.1167 35.9028C59.2218 36.1795 59.3713 36.423 59.5649 36.6333C59.7642 36.8436 60.0021 37.0068 60.2788 37.123C60.561 37.2337 60.8765 37.2891 61.2251 37.2891C61.856 37.2891 62.3706 37.1037 62.769 36.7329C63.173 36.3566 63.4746 35.8558 63.6738 35.2305C63.8786 34.5996 63.9948 33.9023 64.0225 33.1387C64.028 33.0557 64.0308 32.9754 64.0308 32.8979C64.0308 32.8149 64.0308 32.7347 64.0308 32.6572L63.6572 30.6567C63.6572 30.203 63.5521 29.7907 63.3418 29.4199C63.1315 29.0492 62.8465 28.7559 62.4868 28.54C62.1326 28.3242 61.7314 28.2163 61.2832 28.2163C60.8516 28.2163 60.4559 28.3215 60.0962 28.5317C59.7365 28.742 59.4487 29.0298 59.2329 29.395C59.0171 29.7547 58.9092 30.1587 58.9092 30.6069V30.6235C58.9092 31.0884 59.0116 31.5007 59.2163 31.8604C59.4211 32.2145 59.7005 32.494 60.0547 32.6987C60.4089 32.9035 60.8128 33.0059 61.2666 33.0059C61.7204 33.0059 62.1271 32.9062 62.4868 32.707C62.8465 32.5078 63.1315 32.2311 63.3418 31.877C63.5521 31.5228 63.6572 31.1216 63.6572 30.6733V30.6567H64.1553V32.8647H63.8647C63.7209 33.1802 63.5078 33.4735 63.2256 33.7446C62.9434 34.0158 62.5947 34.2344 62.1797 34.4004C61.7702 34.5664 61.2887 34.6494 60.7354 34.6494C59.9717 34.6494 59.2965 34.4779 58.71 34.1348C58.1234 33.7917 57.6613 33.3213 57.3237 32.7236C56.9917 32.126 56.8257 31.4508 56.8257 30.6982V30.6816C56.8257 29.8682 57.0138 29.146 57.3901 28.5151C57.772 27.8787 58.2977 27.3807 58.9673 27.021C59.6424 26.6558 60.4089 26.4731 61.2666 26.4731ZM69.8247 37.1396C69.4484 37.1396 69.133 37.0151 68.8784 36.7661C68.6294 36.5116 68.5049 36.2017 68.5049 35.8364C68.5049 35.4657 68.6294 35.1558 68.8784 34.9067C69.133 34.6522 69.4484 34.5249 69.8247 34.5249C70.2065 34.5249 70.522 34.6522 70.771 34.9067C71.02 35.1558 71.1445 35.4657 71.1445 35.8364C71.1445 36.2017 71.02 36.5116 70.771 36.7661C70.522 37.0151 70.2065 37.1396 69.8247 37.1396ZM69.8247 30.9805C69.4484 30.9805 69.133 30.856 68.8784 30.6069C68.6294 30.3524 68.5049 30.0425 68.5049 29.6772C68.5049 29.3065 68.6294 28.9966 68.8784 28.7476C69.133 28.493 69.4484 28.3657 69.8247 28.3657C70.2065 28.3657 70.522 28.493 70.771 28.7476C71.02 28.9966 71.1445 29.3065 71.1445 29.6772C71.1445 30.0425 71.02 30.3524 70.771 30.6069C70.522 30.856 70.2065 30.9805 69.8247 30.9805ZM79.4038 38.75V36.4507H73.5435V34.6992C73.8589 34.1624 74.1743 33.6229 74.4897 33.0806C74.8107 32.5382 75.1344 31.9987 75.4609 31.4619C75.793 30.9196 76.1222 30.3856 76.4487 29.8599C76.7808 29.3286 77.11 28.8057 77.4365 28.291C77.7686 27.7708 78.1006 27.2645 78.4326 26.772H81.4458V34.6826H83.0645V36.4507H81.4458V38.75H79.4038ZM75.5356 34.7324H79.437V28.4819H79.3125C79.069 28.8582 78.8172 29.2456 78.5571 29.644C78.3026 30.0425 78.0452 30.4492 77.7852 30.8643C77.5251 31.2793 77.2677 31.6971 77.0132 32.1177C76.7586 32.5327 76.5068 32.9505 76.2578 33.3711C76.0088 33.7861 75.7681 34.1984 75.5356 34.6079V34.7324ZM88.02 38.75V28.8804H87.8706L84.8906 30.9805V28.9717L88.02 26.772H90.1533V38.75H88.02Z" fill="black"/>
<path fill-rule="evenodd" clip-rule="evenodd" d="M307.865 27.5329C307.865 26.8999 307.387 26.3867 306.798 26.3867H305.732C305.143 26.3867 304.665 26.8999 304.665 27.5329V37.4669C304.665 38.0999 305.143 38.6131 305.732 38.6131H306.798C307.387 38.6131 307.865 38.0999 307.865 37.4669V27.5329ZM300.431 28.832H301.498C302.087 28.832 302.564 29.3575 302.564 30.0057V37.4394C302.564 38.0876 302.087 38.6131 301.498 38.6131H300.431C299.842 38.6131 299.364 38.0876 299.364 37.4394V30.0057C299.364 29.3575 299.842 28.832 300.431 28.832ZM296.099 31.481H295.032C294.443 31.481 293.966 32.0132 293.966 32.6697V37.4244C293.966 38.0809 294.443 38.6131 295.032 38.6131H296.099C296.688 38.6131 297.166 38.0809 297.166 37.4244V32.6697C297.166 32.0132 296.688 31.481 296.099 31.481ZM290.798 33.9263H289.732C289.143 33.9263 288.665 34.4509 288.665 35.098V37.4414C288.665 38.0885 289.143 38.6131 289.732 38.6131H290.798C291.387 38.6131 291.865 38.0885 291.865 37.4414V35.098C291.865 34.4509 291.387 33.9263 290.798 33.9263Z" fill="black"/>
<path fill-rule="evenodd" clip-rule="evenodd" d="M323.437 28.8022C325.924 28.8023 328.316 29.7244 330.118 31.3779C330.254 31.5055 330.471 31.5039 330.605 31.3743L331.902 30.1108C331.97 30.045 332.007 29.956 332.007 29.8633C332.006 29.7706 331.968 29.682 331.899 29.617C327.168 25.2423 319.704 25.2423 314.973 29.617C314.905 29.6819 314.866 29.7705 314.865 29.8632C314.865 29.9559 314.902 30.045 314.97 30.1108L316.268 31.3743C316.401 31.5041 316.619 31.5057 316.754 31.3779C318.557 29.7243 320.949 28.8022 323.437 28.8022ZM323.433 33.0225C324.791 33.0224 326.099 33.5342 327.106 34.4583C327.242 34.5894 327.456 34.5866 327.589 34.4519L328.876 33.1326C328.944 33.0634 328.981 32.9695 328.98 32.8719C328.979 32.7744 328.94 32.6813 328.871 32.6135C325.807 29.7227 321.062 29.7227 317.998 32.6135C317.929 32.6813 317.89 32.7744 317.889 32.872C317.888 32.9696 317.926 33.0635 317.993 33.1326L319.28 34.4519C319.413 34.5866 319.627 34.5894 319.763 34.4583C320.769 33.5348 322.077 33.0231 323.433 33.0225ZM325.958 35.816C325.96 35.9214 325.922 36.023 325.855 36.0968L323.679 38.5515C323.615 38.6236 323.528 38.6642 323.437 38.6642C323.346 38.6642 323.259 38.6236 323.195 38.5515L321.018 36.0968C320.951 36.0229 320.914 35.9213 320.916 35.816C320.918 35.7106 320.959 35.6108 321.029 35.5402C322.419 34.2263 324.455 34.2263 325.845 35.5402C325.915 35.6109 325.956 35.7107 325.958 35.816Z" fill="black"/>
<rect opacity="0.35" x="339.507" y="26.5" width="24" height="12" rx="3.8" stroke="black"/>
<path opacity="0.4" d="M365.007 30.5V34.5755C365.812 34.2303 366.335 33.4273 366.335 32.5377C366.335 31.6481 365.812 30.8452 365.007 30.5" fill="black"/>
<rect x="341.007" y="28" width="21" height="9" rx="2.5" fill="black"/>
<circle cx="356" cy="86" r="24" fill="white"/>
<path d="M355 87H349V85H355V79H357V85H363V87H357V93H355V87Z" fill="#1F1F1F"/>
<path d="M156.708 398.812H157.704V401.176H156.708V398.812ZM156.696 394.996H157.5V395.248C157.5 395.88 157.372 396.46 157.116 396.988C156.86 397.508 156.504 397.956 156.048 398.332C155.592 398.7 155.06 398.98 154.452 399.172L153.984 398.404C154.52 398.236 154.992 398 155.4 397.696C155.808 397.384 156.124 397.02 156.348 396.604C156.58 396.18 156.696 395.728 156.696 395.248V394.996ZM156.888 394.996H157.704V395.248C157.704 395.712 157.82 396.148 158.052 396.556C158.284 396.956 158.604 397.308 159.012 397.612C159.428 397.908 159.904 398.132 160.44 398.284L159.984 399.064C159.376 398.88 158.84 398.604 158.376 398.236C157.912 397.868 157.548 397.432 157.284 396.928C157.02 396.416 156.888 395.856 156.888 395.248V394.996ZM154.248 394.492H160.2V395.308H154.248V394.492ZM156.708 393.16H157.704V394.852H156.708V393.16ZM161.448 393.076H162.444V403.948H161.448V393.076ZM153.792 401.704L153.66 400.876C154.316 400.876 155.04 400.872 155.832 400.864C156.632 400.848 157.452 400.816 158.292 400.768C159.14 400.712 159.956 400.62 160.74 400.492L160.824 401.236C160.008 401.388 159.18 401.496 158.34 401.56C157.508 401.624 156.704 401.664 155.928 401.68C155.152 401.696 154.44 401.704 153.792 401.704ZM167.075 393.988C167.547 393.988 167.955 394.14 168.299 394.444C168.651 394.748 168.923 395.184 169.115 395.752C169.307 396.32 169.403 396.988 169.403 397.756C169.403 398.532 169.307 399.204 169.115 399.772C168.923 400.34 168.651 400.78 168.299 401.092C167.955 401.396 167.547 401.548 167.075 401.548C166.619 401.548 166.215 401.396 165.863 401.092C165.519 400.78 165.251 400.34 165.059 399.772C164.867 399.204 164.771 398.532 164.771 397.756C164.771 396.988 164.867 396.32 165.059 395.752C165.251 395.184 165.519 394.748 165.863 394.444C166.215 394.14 166.619 393.988 167.075 393.988ZM167.075 394.912C166.795 394.912 166.551 395.028 166.343 395.26C166.135 395.492 165.975 395.82 165.863 396.244C165.751 396.668 165.695 397.172 165.695 397.756C165.695 398.34 165.751 398.848 165.863 399.28C165.975 399.704 166.135 400.032 166.343 400.264C166.551 400.496 166.795 400.612 167.075 400.612C167.363 400.612 167.611 400.496 167.819 400.264C168.027 400.032 168.187 399.704 168.299 399.28C168.419 398.848 168.479 398.34 168.479 397.756C168.479 397.172 168.419 396.668 168.299 396.244C168.187 395.82 168.027 395.492 167.819 395.26C167.611 395.028 167.363 394.912 167.075 394.912ZM172.907 393.076H173.867V403.936H172.907V393.076ZM171.179 397.372H173.267V398.2H171.179V397.372ZM170.495 393.304H171.443V403.384H170.495V393.304ZM181.705 394.012H182.521V395.956C182.521 396.556 182.445 397.144 182.293 397.72C182.149 398.296 181.941 398.836 181.669 399.34C181.397 399.844 181.077 400.292 180.709 400.684C180.341 401.076 179.941 401.388 179.509 401.62L178.897 400.816C179.297 400.616 179.665 400.348 180.001 400.012C180.345 399.668 180.645 399.276 180.901 398.836C181.157 398.396 181.353 397.932 181.489 397.444C181.633 396.948 181.705 396.452 181.705 395.956V394.012ZM181.885 394.012H182.689V395.956C182.689 396.436 182.757 396.912 182.893 397.384C183.037 397.856 183.237 398.3 183.493 398.716C183.749 399.132 184.041 399.504 184.369 399.832C184.705 400.16 185.065 400.42 185.449 400.612L184.837 401.404C184.413 401.188 184.021 400.892 183.661 400.516C183.309 400.14 182.997 399.712 182.725 399.232C182.461 398.744 182.253 398.224 182.101 397.672C181.957 397.112 181.885 396.54 181.885 395.956V394.012ZM186.397 393.076H187.393V403.936H186.397V393.076ZM187.165 397.468H189.169V398.32H187.165V397.468ZM192.984 394.264H193.812V395.38C193.812 396.044 193.684 396.66 193.428 397.228C193.172 397.796 192.812 398.296 192.348 398.728C191.892 399.152 191.36 399.472 190.752 399.688L190.236 398.908C190.78 398.708 191.256 398.432 191.664 398.08C192.08 397.728 192.404 397.32 192.636 396.856C192.868 396.384 192.984 395.892 192.984 395.38V394.264ZM193.176 394.264H193.992V395.38C193.992 395.748 194.056 396.104 194.184 396.448C194.32 396.784 194.512 397.1 194.76 397.396C195.008 397.684 195.296 397.94 195.624 398.164C195.96 398.388 196.328 398.564 196.728 398.692L196.224 399.472C195.624 399.264 195.096 398.96 194.64 398.56C194.184 398.16 193.824 397.688 193.56 397.144C193.304 396.6 193.176 396.012 193.176 395.38V394.264ZM190.5 393.976H196.44V394.792H190.5V393.976ZM197.988 393.088H198.984V401.032H197.988V393.088ZM192.012 402.88H199.32V403.696H192.012V402.88ZM192.012 400.288H193.008V403.24H192.012V400.288ZM205.13 393.592H206.126V397.588H205.13V393.592ZM205.13 397.12H205.97C206.546 397.12 207.094 397.108 207.614 397.084C208.142 397.06 208.662 397.02 209.174 396.964C209.694 396.9 210.226 396.816 210.77 396.712L210.902 397.54C210.342 397.644 209.798 397.728 209.27 397.792C208.742 397.848 208.206 397.892 207.662 397.924C207.126 397.948 206.562 397.96 205.97 397.96H205.13V397.12ZM209.342 394.732H212.654V395.536H209.342V394.732ZM212.438 393.076H213.434V398.872H212.438V393.076ZM206.03 399.472H213.686V400.264H206.03V399.472ZM209.858 400.72C210.802 400.72 211.542 400.86 212.078 401.14C212.622 401.412 212.894 401.804 212.894 402.316C212.894 402.82 212.622 403.212 212.078 403.492C211.542 403.772 210.802 403.912 209.858 403.912C208.922 403.912 208.182 403.772 207.638 403.492C207.094 403.212 206.822 402.82 206.822 402.316C206.822 401.804 207.094 401.412 207.638 401.14C208.182 400.86 208.922 400.72 209.858 400.72ZM209.858 401.452C209.226 401.452 208.726 401.528 208.358 401.68C207.99 401.824 207.806 402.036 207.806 402.316C207.806 402.596 207.99 402.812 208.358 402.964C208.726 403.108 209.226 403.18 209.858 403.18C210.498 403.18 210.998 403.108 211.358 402.964C211.718 402.812 211.898 402.596 211.898 402.316C211.898 402.036 211.718 401.824 211.358 401.68C210.998 401.528 210.498 401.452 209.858 401.452ZM209.366 398.392H210.362V399.88H209.366V398.392ZM216.865 396.34H224.245V397.144H216.865V396.34ZM215.533 398.596H225.373V399.412H215.533V398.596ZM216.865 393.472H217.849V396.748H216.865V393.472ZM216.793 402.856H224.305V403.672H216.793V402.856ZM216.793 400.504H217.789V403.072H216.793V400.504ZM231.123 393.604H238.107V394.396H231.123V393.604ZM229.971 398.164H239.751V398.968H229.971V398.164ZM233.991 395.98H234.975V398.296H233.991V395.98ZM237.531 393.604H238.515V394.372C238.515 394.78 238.503 395.232 238.479 395.728C238.455 396.216 238.375 396.78 238.239 397.42L237.255 397.312C237.399 396.68 237.479 396.132 237.495 395.668C237.519 395.196 237.531 394.764 237.531 394.372V393.604ZM234.315 399.832H235.179V400.312C235.179 400.792 235.067 401.232 234.843 401.632C234.627 402.024 234.327 402.376 233.943 402.688C233.559 402.992 233.119 403.244 232.623 403.444C232.127 403.652 231.599 403.8 231.039 403.888L230.667 403.108C231.163 403.036 231.631 402.92 232.071 402.76C232.511 402.592 232.899 402.384 233.235 402.136C233.571 401.888 233.835 401.612 234.027 401.308C234.219 400.996 234.315 400.664 234.315 400.312V399.832ZM234.459 399.832H235.323V400.312C235.323 400.664 235.419 400.996 235.611 401.308C235.803 401.612 236.067 401.888 236.403 402.136C236.747 402.384 237.139 402.592 237.579 402.76C238.019 402.92 238.487 403.036 238.983 403.108L238.599 403.888C238.039 403.8 237.511 403.652 237.015 403.444C236.519 403.244 236.079 402.992 235.695 402.688C235.311 402.376 235.007 402.024 234.783 401.632C234.567 401.232 234.459 400.792 234.459 400.312V399.832Z" fill="black"/>
<rect y="735" width="80" height="94" fill="#D9D9D9"/>
<rect x="81" y="735" width="79" height="94" fill="#D9D9D9"/>
<rect x="161" y="735" width="80" height="94" fill="#D9D9D9"/>
<rect x="242" y="735" width="79" height="94" fill="#D9D9D9"/>
<rect x="322" y="735" width="80" height="94" fill="#D9D9D9"/>
<path d="M27.23 795.17H32.405V803.525H27.23V795.17ZM31.235 796.16H28.4V802.535H31.235V796.16ZM37.085 793.595H38.285V807.17H37.085V793.595ZM31.79 798.71H34.91V799.73H31.79V798.71ZM34.385 793.88H35.57V806.48H34.385V793.88ZM50.4188 793.61H51.6638V803.51H50.4188V793.61ZM42.9488 805.85H52.0838V806.87H42.9488V805.85ZM42.9488 802.505H44.1938V806.195H42.9488V802.505ZM44.3888 794.555C45.0688 794.555 45.6738 794.695 46.2038 794.975C46.7338 795.255 47.1538 795.65 47.4638 796.16C47.7738 796.66 47.9288 797.235 47.9288 797.885C47.9288 798.535 47.7738 799.115 47.4638 799.625C47.1538 800.125 46.7338 800.52 46.2038 800.81C45.6738 801.09 45.0688 801.23 44.3888 801.23C43.7188 801.23 43.1138 801.09 42.5738 800.81C42.0438 800.52 41.6238 800.125 41.3138 799.625C41.0038 799.115 40.8488 798.535 40.8488 797.885C40.8488 797.235 41.0038 796.66 41.3138 796.16C41.6238 795.65 42.0438 795.255 42.5738 794.975C43.1138 794.695 43.7188 794.555 44.3888 794.555ZM44.3888 795.635C43.9488 795.635 43.5538 795.73 43.2038 795.92C42.8538 796.11 42.5738 796.375 42.3638 796.715C42.1638 797.055 42.0638 797.445 42.0638 797.885C42.0638 798.335 42.1638 798.73 42.3638 799.07C42.5738 799.4 42.8538 799.66 43.2038 799.85C43.5538 800.04 43.9488 800.135 44.3888 800.135C44.8288 800.135 45.2238 800.04 45.5738 799.85C45.9338 799.66 46.2138 799.4 46.4138 799.07C46.6138 798.73 46.7138 798.335 46.7138 797.885C46.7138 797.445 46.6138 797.055 46.4138 796.715C46.2138 796.375 45.9338 796.11 45.5738 795.92C45.2238 795.73 44.8288 795.635 44.3888 795.635Z" fill="black"/>
<path d="M34 770H37V764H43V770H46V761L40 756.5L34 761V770ZM32 772V760L40 754L48 760V772H41V766H39V772H32Z" fill="#1F1F1F"/>
<path d="M104.565 795.36H105.765C105.765 796.43 105.575 797.405 105.195 798.285C104.825 799.155 104.25 799.93 103.47 800.61C102.69 801.28 101.695 801.845 100.485 802.305L99.93 801.405C101 801.005 101.875 800.525 102.555 799.965C103.245 799.405 103.75 798.775 104.07 798.075C104.4 797.365 104.565 796.595 104.565 795.765V795.36ZM100.485 795.36H104.97V796.38H100.485V795.36ZM104.43 797.73V798.585L100.05 799.05L99.855 798.03L104.43 797.73ZM109.995 794.61H111.18V801.72H109.995V794.61ZM107.835 797.715H110.4V798.735H107.835V797.715ZM107.025 794.865H108.21V801.63H107.025V794.865ZM102.225 802.35H111.18V805.545H103.485V807.555H102.255V804.615H109.965V803.34H102.225V802.35ZM102.255 807H111.705V807.99H102.255V807ZM123.419 794.61H124.664V804.6H123.419V794.61ZM115.814 806.85H125.039V807.87H115.814V806.85ZM115.814 803.82H117.059V807.36H115.814V803.82ZM114.254 801.645H115.349C116.209 801.645 116.994 801.635 117.704 801.615C118.414 801.595 119.099 801.55 119.759 801.48C120.419 801.41 121.099 801.315 121.799 801.195L121.934 802.215C121.214 802.335 120.514 802.43 119.834 802.5C119.164 802.56 118.464 802.605 117.734 802.635C117.014 802.655 116.219 802.665 115.349 802.665H114.254V801.645ZM114.224 795.57H120.374V799.5H115.469V801.96H114.254V798.54H119.159V796.575H114.224V795.57ZM128.023 803.79H129.058C129.908 803.79 130.668 803.78 131.338 803.76C132.008 803.73 132.643 803.685 133.243 803.625C133.853 803.565 134.468 803.475 135.088 803.355L135.238 804.375C134.588 804.505 133.953 804.6 133.333 804.66C132.713 804.72 132.063 804.765 131.383 804.795C130.703 804.825 129.928 804.84 129.058 804.84H128.023V803.79ZM128.023 795.885H134.188V796.92H129.268V804.165H128.023V795.885ZM137.278 794.595H138.523V808.185H137.278V794.595ZM133.393 799.515H137.803V800.55H133.393V799.515Z" fill="black"/>
<path d="M113 773C112.45 773 111.979 772.804 111.588 772.413C111.196 772.021 111 771.55 111 771V757C111 756.45 111.196 755.979 111.588 755.588C111.979 755.196 112.45 755 113 755H114V753H116V755H124V753H126V755H127C127.55 755 128.021 755.196 128.413 755.588C128.804 755.979 129 756.45 129 757V771C129 771.55 128.804 772.021 128.413 772.413C128.021 772.804 127.55 773 127 773H113ZM113 771H127V761H113V771ZM113 759H127V757H113V759ZM120 765C119.717 765 119.479 764.904 119.288 764.713C119.096 764.521 119 764.283 119 764C119 763.717 119.096 763.479 119.288 763.288C119.479 763.096 119.717 763 120 763C120.283 763 120.521 763.096 120.713 763.288C120.904 763.479 121 763.717 121 764C121 764.283 120.904 764.521 120.713 764.713C120.521 764.904 120.283 765 120 765ZM115.288 764.713C115.096 764.521 115 764.283 115 764C115 763.717 115.096 763.479 115.288 763.288C115.479 763.096 115.717 763 116 763C116.283 763 116.521 763.096 116.713 763.288C116.904 763.479 117 763.717 117 764C117 764.283 116.904 764.521 116.713 764.713C116.521 764.904 116.283 765 116 765C115.717 765 115.479 764.904 115.288 764.713ZM124 765C123.717 765 123.479 764.904 123.288 764.713C123.096 764.521 123 764.283 123 764C123 763.717 123.096 763.479 123.288 763.288C123.479 763.096 123.717 763 124 763C124.283 763 124.521 763.096 124.713 763.288C124.904 763.479 125 763.717 125 764C125 764.283 124.904 764.521 124.713 764.713C124.521 764.904 124.283 765 124 765ZM120 769C119.717 769 119.479 768.904 119.288 768.713C119.096 768.521 119 768.283 119 768C119 767.717 119.096 767.479 119.288 767.288C119.479 767.096 119.717 767 120 767C120.283 767 120.521 767.096 120.713 767.288C120.904 767.479 121 767.717 121 768C121 768.283 120.904 768.521 120.713 768.713C120.521 768.904 120.283 769 120 769ZM115.288 768.713C115.096 768.521 115 768.283 115 768C115 767.717 115.096 767.479 115.288 767.288C115.479 767.096 115.717 767 116 767C116.283 767 116.521 767.096 116.713 767.288C116.904 767.479 117 767.717 117 768C117 768.283 116.904 768.521 116.713 768.713C116.521 768.904 116.283 769 116 769C115.717 769 115.479 768.904 115.288 768.713ZM124 769C123.717 769 123.479 768.904 123.288 768.713C123.096 768.521 123 768.283 123 768C123 767.717 123.096 767.479 123.288 767.288C123.479 767.096 123.717 767 124 767C124.283 767 124.521 767.096 124.713 767.288C124.904 767.479 125 767.717 125 768C125 768.283 124.904 768.521 124.713 768.713C124.521 768.904 124.283 769 124 769Z" fill="#1F1F1F"/>
<path d="M187.951 793.44H200.251V794.49H187.951V793.44ZM193.441 789.93H194.671V793.905H193.441V789.93ZM189.031 783.9H199.096V784.92H189.031V783.9ZM189.061 789.36H199.066V790.35H189.061V789.36ZM191.131 784.71H192.376V789.525H191.131V784.71ZM195.751 784.71H196.981V789.525H195.751V784.71ZM207.51 784.005H208.725C208.725 784.985 208.63 785.945 208.44 786.885C208.25 787.815 207.925 788.705 207.465 789.555C207.005 790.395 206.375 791.185 205.575 791.925C204.775 792.665 203.77 793.335 202.56 793.935L201.87 792.975C202.95 792.445 203.85 791.86 204.57 791.22C205.29 790.58 205.865 789.89 206.295 789.15C206.725 788.41 207.035 787.62 207.225 786.78C207.415 785.94 207.51 785.06 207.51 784.14V784.005ZM202.62 784.005H208.26V785.025H202.62V784.005ZM207.33 787.365V788.34L202.125 788.835L201.93 787.74L207.33 787.365ZM210.93 782.595H212.175V796.155H210.93V782.595ZM211.845 788.1H214.335V789.135H211.845V788.1ZM190.232 804.595H191.477V818.17H190.232V804.595ZM191.192 809.935H193.697V811H191.192V809.935ZM181.592 805.75H182.822V809.32H186.677V805.75H187.907V814.915H181.592V805.75ZM182.822 810.31V813.88H186.677V810.31H182.822ZM204.721 804.61H205.966V814.51H204.721V804.61ZM197.251 816.85H206.386V817.87H197.251V816.85ZM197.251 813.505H198.496V817.195H197.251V813.505ZM198.691 805.555C199.371 805.555 199.976 805.695 200.506 805.975C201.036 806.255 201.456 806.65 201.766 807.16C202.076 807.66 202.231 808.235 202.231 808.885C202.231 809.535 202.076 810.115 201.766 810.625C201.456 811.125 201.036 811.52 200.506 811.81C199.976 812.09 199.371 812.23 198.691 812.23C198.021 812.23 197.416 812.09 196.876 811.81C196.346 811.52 195.926 811.125 195.616 810.625C195.306 810.115 195.151 809.535 195.151 808.885C195.151 808.235 195.306 807.66 195.616 807.16C195.926 806.65 196.346 806.255 196.876 805.975C197.416 805.695 198.021 805.555 198.691 805.555ZM198.691 806.635C198.251 806.635 197.856 806.73 197.506 806.92C197.156 807.11 196.876 807.375 196.666 807.715C196.466 808.055 196.366 808.445 196.366 808.885C196.366 809.335 196.466 809.73 196.666 810.07C196.876 810.4 197.156 810.66 197.506 810.85C197.856 811.04 198.251 811.135 198.691 811.135C199.131 811.135 199.526 811.04 199.876 810.85C200.236 810.66 200.516 810.4 200.716 810.07C200.916 809.73 201.016 809.335 201.016 808.885C201.016 808.445 200.916 808.055 200.716 807.715C200.516 807.375 200.236 807.11 199.876 806.92C199.526 806.73 199.131 806.635 198.691 806.635ZM209.324 813.79H210.359C211.209 813.79 211.969 813.78 212.639 813.76C213.309 813.73 213.944 813.685 214.544 813.625C215.154 813.565 215.769 813.475 216.389 813.355L216.539 814.375C215.889 814.505 215.254 814.6 214.634 814.66C214.014 814.72 213.364 814.765 212.684 814.795C212.004 814.825 211.229 814.84 210.359 814.84H209.324V813.79ZM209.324 805.885H215.489V806.92H210.569V814.165H209.324V805.885ZM218.579 804.595H219.824V818.185H218.579V804.595ZM214.694 809.515H219.104V810.55H214.694V809.515Z" fill="black"/>
<path d="M193 772C192.45 772 191.979 771.804 191.588 771.413C191.196 771.021 191 770.55 191 770V756C191 755.45 191.196 754.979 191.588 754.588C191.979 754.196 192.45 754 193 754H207C207.55 754 208.021 754.196 208.413 754.588C208.804 754.979 209 755.45 209 756V758.5H207V756H193V770H207V767.5H209V770C209 770.55 208.804 771.021 208.413 771.413C208.021 771.804 207.55 772 207 772H193ZM201 768C200.45 768 199.979 767.804 199.588 767.413C199.196 767.021 199 766.55 199 766V760C199 759.45 199.196 758.979 199.588 758.588C199.979 758.196 200.45 758 201 758H208C208.55 758 209.021 758.196 209.413 758.588C209.804 758.979 210 759.45 210 760V766C210 766.55 209.804 767.021 209.413 767.413C209.021 767.804 208.55 768 208 768H201ZM208 766V760H201V766H208ZM205.063 764.063C205.354 763.771 205.5 763.417 205.5 763C205.5 762.583 205.354 762.229 205.063 761.938C204.771 761.646 204.417 761.5 204 761.5C203.583 761.5 203.229 761.646 202.938 761.938C202.646 762.229 202.5 762.583 202.5 763C202.5 763.417 202.646 763.771 202.938 764.063C203.229 764.354 203.583 764.5 204 764.5C204.417 764.5 204.771 764.354 205.063 764.063Z" fill="#1F1F1F"/>
<path d="M269.686 789.06H270.691C271.581 789.06 272.361 789.05 273.031 789.03C273.701 789 274.316 788.955 274.876 788.895C275.446 788.835 276.021 788.745 276.601 788.625L276.736 789.63C276.146 789.75 275.556 789.845 274.966 789.915C274.386 789.975 273.756 790.02 273.076 790.05C272.396 790.07 271.601 790.08 270.691 790.08H269.686V789.06ZM269.686 783.54H275.866V784.56H270.916V789.39H269.686V783.54ZM271.051 791.415H280.111V796.17H278.866V792.42H271.051V791.415ZM278.866 782.595H280.111V790.71H278.866V782.595ZM275.071 786.105H279.211V787.125H275.071V786.105ZM292.62 782.595H293.865V789.63H292.62V782.595ZM285.09 790.29H293.865V793.545H286.335V795.465H285.135V792.63H292.635V791.265H285.09V790.29ZM285.135 795.03H294.33V796.02H285.135V795.03ZM286.365 783.795H287.385V784.515C287.385 785.305 287.22 786.045 286.89 786.735C286.57 787.415 286.12 788.01 285.54 788.52C284.96 789.02 284.285 789.4 283.515 789.66L282.93 788.67C283.44 788.51 283.905 788.29 284.325 788.01C284.745 787.73 285.105 787.405 285.405 787.035C285.715 786.665 285.95 786.27 286.11 785.85C286.28 785.42 286.365 784.975 286.365 784.515V783.795ZM286.62 783.795H287.625V784.515C287.625 784.945 287.705 785.365 287.865 785.775C288.035 786.175 288.275 786.545 288.585 786.885C288.895 787.225 289.26 787.525 289.68 787.785C290.1 788.045 290.56 788.25 291.06 788.4L290.46 789.375C289.7 789.135 289.03 788.78 288.45 788.31C287.88 787.83 287.43 787.27 287.1 786.63C286.78 785.98 286.62 785.275 286.62 784.515V783.795ZM283.26 783.36H290.685V784.38H283.26V783.36ZM271.232 804.595H272.477V818.155H271.232V804.595ZM272.147 810.1H274.637V811.135H272.147V810.1ZM267.767 806.05H268.982C268.982 807.34 268.772 808.575 268.352 809.755C267.932 810.925 267.272 812.01 266.372 813.01C265.472 814 264.287 814.86 262.817 815.59L262.127 814.63C263.387 814 264.432 813.265 265.262 812.425C266.102 811.575 266.727 810.635 267.137 809.605C267.557 808.565 267.767 807.445 267.767 806.245V806.05ZM262.757 806.05H268.397V807.085H262.757V806.05ZM281.116 808.36H284.116V809.38H281.116V808.36ZM281.011 811.765H284.086V812.785H281.011V811.765ZM286.186 804.595H287.386V818.17H286.186V804.595ZM283.456 804.955H284.641V817.48H283.456V804.955ZM280.441 806.32H281.641C281.641 807.5 281.471 808.635 281.131 809.725C280.791 810.805 280.246 811.815 279.496 812.755C278.756 813.685 277.781 814.515 276.571 815.245L275.836 814.345C276.896 813.705 277.766 812.985 278.446 812.185C279.126 811.375 279.626 810.5 279.946 809.56C280.276 808.61 280.441 807.605 280.441 806.545V806.32ZM276.436 806.32H280.921V807.34H276.436V806.32ZM289.634 812.635H301.934V813.64H289.634V812.635ZM295.139 813.1H296.369V818.17H295.139V813.1ZM291.194 805.15H292.424V807.01H299.129V805.15H300.374V811.015H291.194V805.15ZM292.424 808.015V809.995H299.129V808.015H292.424Z" fill="black"/>
<path d="M275 772C274.45 772 273.979 771.804 273.588 771.413C273.196 771.021 273 770.55 273 770V754H275V770H291V772H275ZM276 769V760H280V769H276ZM281 769V755H285V769H281ZM286 769V764H290V769H286Z" fill="#1F1F1F"/>
<path d="M342.425 802.79H343.46C344.31 802.79 345.07 802.78 345.74 802.76C346.41 802.73 347.045 802.685 347.645 802.625C348.255 802.565 348.87 802.475 349.49 802.355L349.64 803.375C348.99 803.505 348.355 803.6 347.735 803.66C347.115 803.72 346.465 803.765 345.785 803.795C345.105 803.825 344.33 803.84 343.46 803.84H342.425V802.79ZM342.425 794.885H348.59V795.92H343.67V803.165H342.425V794.885ZM351.68 793.595H352.925V807.185H351.68V793.595ZM347.795 798.515H352.205V799.55H347.795V798.515ZM355.549 804.41H367.849V805.445H355.549V804.41ZM361.054 801.155H362.284V804.71H361.054V801.155ZM356.989 794.555H358.234V796.97H365.134V794.555H366.364V801.5H356.989V794.555ZM358.234 797.99V800.48H365.134V797.99H358.234ZM379.233 793.595H380.478V807.17H379.233V793.595ZM375.258 795.065H376.488C376.488 796.045 376.368 796.99 376.128 797.9C375.898 798.81 375.533 799.675 375.033 800.495C374.533 801.305 373.883 802.06 373.083 802.76C372.283 803.46 371.313 804.085 370.173 804.635L369.513 803.63C370.823 803 371.903 802.265 372.753 801.425C373.603 800.585 374.233 799.65 374.643 798.62C375.053 797.58 375.258 796.46 375.258 795.26V795.065ZM370.143 795.065H375.783V796.07H370.143V795.065Z" fill="black"/>
<path d="M356 767C355.45 767 354.979 766.804 354.588 766.413C354.196 766.021 354 765.55 354 765C354 764.45 354.196 763.979 354.588 763.588C354.979 763.196 355.45 763 356 763C356.55 763 357.021 763.196 357.413 763.588C357.804 763.979 358 764.45 358 765C358 765.55 357.804 766.021 357.413 766.413C357.021 766.804 356.55 767 356 767ZM362 767C361.45 767 360.979 766.804 360.588 766.413C360.196 766.021 360 765.55 360 765C360 764.45 360.196 763.979 360.588 763.588C360.979 763.196 361.45 763 362 763C362.55 763 363.021 763.196 363.413 763.588C363.804 763.979 364 764.45 364 765C364 765.55 363.804 766.021 363.413 766.413C363.021 766.804 362.55 767 362 767ZM368 767C367.45 767 366.979 766.804 366.588 766.413C366.196 766.021 366 765.55 366 765C366 764.45 366.196 763.979 366.588 763.588C366.979 763.196 367.45 763 368 763C368.55 763 369.021 763.196 369.413 763.588C369.804 763.979 370 764.45 370 765C370 765.55 369.804 766.021 369.413 766.413C369.021 766.804 368.55 767 368 767Z" fill="#1F1F1F"/>
<rect y="829" width="402" height="45" fill="black"/>
<path d="M39 860V847.825L33.4 853.425L32 852L40 844L48 852L46.6 853.425L41 847.825V860H39Z" fill="white"/>
</g>
<defs>
<clipPath id="clip0_112_14">
<rect width="402" height="874" fill="white"/>
</clipPath>
</defs>
</svg>
